HIERARCHY
ROOT Hips
{
	OFFSET 0.0000 0.0000 0.0000
	CHANNELS 6 Xposition Yposition Zposition Zrotation Xrotation Yrotation
	JOINT Ab
	{
		OFFSET -0.0000 8.0846 -0.0000
		CHANNELS 3 Zrotation Xrotation Yrotation
		JOINT Chest
		{
			OFFSET -0.0000 25.0068 -0.0000
			CHANNELS 3 Zrotation Xrotation Yrotation
			JOINT Neck
			{
				OFFSET -0.0000 25.0068 0.0000
				CHANNELS 3 Zrotation Xrotation Yrotation
				JOINT Head
				{
					OFFSET -0.0000 10.7556 0.0000
					CHANNELS 3 Zrotation Xrotation Yrotation
					End Site
					{
						OFFSET -0.0000 16.6222 0.0000
					}
				}
			}
			JOINT LeftCollar
			{
				OFFSET -0.0000 25.0068 0.0000
				CHANNELS 3 Zrotation Xrotation Yrotation
				JOINT LeftShoulder
				{
					OFFSET 19.5556 -0.0000 0.0000
					CHANNELS 3 Zrotation Xrotation Yrotation
					JOINT LeftElbow
					{
						OFFSET 27.1828 0.0000 0.0000
						CHANNELS 3 Zrotation Xrotation Yrotation
						JOINT LeftWrist
						{
							OFFSET 23.3157 0.0000 0.0000
							CHANNELS 3 Zrotation Xrotation Yrotation
							End Site
							{
								OFFSET 0.0000 -14.6667 0.0000
							}
						}
					}
				}
			}
			JOINT RightCollar
			{
				OFFSET -0.0000 25.0068 0.0000
				CHANNELS 3 Zrotation Xrotation Yrotation
				JOINT RightShoulder
				{
					OFFSET -19.5556 0.0000 0.0000
					CHANNELS 3 Zrotation Xrotation Yrotation
					JOINT RightElbow
					{
						OFFSET -27.1828 0.0000 0.0000
						CHANNELS 3 Zrotation Xrotation Yrotation
						JOINT RightWrist
						{
							OFFSET -23.3157 0.0000 0.0000
							CHANNELS 3 Zrotation Xrotation Yrotation
							End Site
							{
								OFFSET -0.0000 -14.6667 0.0000
							}
						}
					}
				}
			}
		}
	}
	JOINT LeftHip
	{
		OFFSET 11.7333 0.0000 0.0000
		CHANNELS 3 Zrotation Xrotation Yrotation
		JOINT LeftKnee
		{
			OFFSET -0.0000 -40.8688 0.0000
			CHANNELS 3 Zrotation Xrotation Yrotation
			JOINT LeftAnkle
			{
				OFFSET -0.0000 -44.4337 0.0000
				CHANNELS 3 Zrotation Xrotation Yrotation
				End Site
				{
					OFFSET -0.0000 -4.8889 16.6222
				}
			}
		}
	}
	JOINT RightHip
	{
		OFFSET -11.7333 0.0000 0.0000
		CHANNELS 3 Zrotation Xrotation Yrotation
		JOINT RightKnee
		{
			OFFSET -0.0000 -40.8688 0.0000
			CHANNELS 3 Zrotation Xrotation Yrotation
			JOINT RightAnkle
			{
				OFFSET -0.0000 -44.4337 0.0000
				CHANNELS 3 Zrotation Xrotation Yrotation
				End Site
				{
					OFFSET -0.0000 -4.8889 16.6222
				}
			}
		}
	}
}
MOTION
Frames: 14
Frame Time: 0.250000
-2.3619 88.6080 190.2112 1.7212 -1.7863 177.3731 1.2992 0.4957 -1.9599 -0.5894 9.3224 -1.9054 0.4224 -19.5934 1.1865 3.2291 5.3064 0.9604 -21.5123 -1.5163 7.9122 -60.0167 27.3404 -3.4071 14.9073 -5.4285 -39.7268 84.4991 0.6413 -20.7473 22.7473 -1.4077 -6.8507 57.9917 44.6651 7.9031 -22.3083 -6.5543 32.4652 -86.9421 -5.2936 19.2884 3.0953 -2.8889 -2.0261 -0.3303 11.6910 -2.3452 -6.8947 -11.4696 21.4574 -0.7425 -9.1742 -0.0379 -1.2499 21.2758 8.0638 -2.9525 -18.3107 -23.2488 
-3.5511 88.3072 187.1044 1.9060 -3.3871 174.8464 2.3155 1.0872 -1.2024 -0.6033 8.2107 -1.1347 2.0406 -19.6589 3.0288 0.6860 3.5544 2.6571 -21.6493 -1.7712 9.3069 -62.5734 25.9882 -0.0140 15.3483 -5.3806 -38.5022 85.7987 -1.2590 -18.9892 22.4832 -1.2616 -6.4428 48.7114 52.4675 19.9571 -26.0206 -8.1023 33.7220 -85.3670 -6.6094 18.9056 2.6197 -3.7921 -3.0272 -1.4415 15.7868 -2.7811 -2.6241 -19.0438 24.6416 -1.3502 -8.8799 0.3623 -1.2192 21.1436 10.2068 -4.0812 -25.1671 -26.1324 
-5.8580 86.8245 178.6850 2.2028 -8.3747 174.6792 -0.1996 4.9105 -1.2271 0.8337 4.1302 -1.2626 6.4014 -27.7761 4.1521 -2.7783 7.8475 2.7589 -20.1427 -2.6006 15.3771 -57.7022 54.2082 -1.1104 32.1215 -12.5586 -37.5122 87.3827 -2.8109 14.9750 21.4778 -1.4533 -7.6214 44.8188 54.5092 26.2242 -28.7034 -11.0001 42.0271 -91.4523 -9.6571 16.3822 1.7622 -3.1530 0.0846 -1.6757 16.5115 -4.7062 1.2624 -23.2504 26.5205 -2.7461 -15.8283 1.6389 -0.1154 35.2325 6.7090 0.6496 -29.6943 -23.4179 
-7.0678 80.8352 160.3573 -1.7499 -12.7234 186.2889 -0.8961 17.2156 -12.4172 3.8074 1.1899 -12.6310 16.7841 -33.8352 13.6815 -7.5317 7.2454 9.2708 -25.0832 -3.3471 14.4742 40.4850 37.6224 -96.0959 93.3948 -4.9499 -3.6861 91.4360 1.0174 64.8551 12.2065 -1.5676 -15.9828 67.2010 30.0540 -24.2906 -10.5269 -3.2393 36.1793 -94.4826 -16.9645 37.2277 -1.4211 9.2415 -5.1729 -1.5163 6.4436 -6.8922 -2.7943 -26.0983 21.7921 -18.9161 -54.0124 -0.9453 53.0615 67.6150 -53.2831 4.5406 -29.2227 -18.0517 
-4.2860 77.0666 116.2613 3.0517 -14.5580 160.8539 4.6275 17.2901 1.8491 4.2323 8.6224 2.2517 11.2819 -30.3592 14.2732 -11.8959 -0.5830 11.0489 -19.8300 -3.4959 21.2210 -60.1632 43.8567 15.5553 23.4665 -10.4027 -50.8474 102.2685 -10.7581 2.9564 24.3622 -1.1581 -5.1054 21.3168 46.0175 59.9592 -50.0053 -22.6048 45.2362 -107.6108 -20.6418 13.4938 18.0725 -37.5245 -0.9473 -131.9477 67.3816 120.0295 -5.0228 -7.5690 24.1104 1.5301 -25.1527 -1.5055 3.9129 61.2568 8.3925 0.7606 -40.7319 -19.6460 
-0.2304 79.9844 45.2774 -4.1863 -6.8231 186.2816 -6.6228 12.6767 -0.4602 -6.4097 6.6767 -0.8336 5.6632 -27.1326 -2.6498 4.1959 10.1088 -4.3452 -27.6236 -5.9215 21.3603 -335.3616 70.6634 271.8046 81.2523 -22.0893 -25.3298 100.3614 2.9030 48.4944 19.5395 -2.3375 -13.0475 65.3626 37.3926 0.4687 -18.0584 -6.0172 44.2062 -83.0196 -21.2066 41.6730 1.5411 -32.6913 -0.8304 -14.7502 51.0459 0.4565 0.3772 -22.3900 20.9868 -2.1655 -17.2435 0.1459 139.4601 86.5546 -140.3242 -1.6465 -9.9796 -17.3965 
0.9650 83.8170 -30.6390 -0.3244 -0.7030 181.6070 0.8949 7.8375 -6.8006 7.1819 9.0835 -7.3111 12.1137 -18.3780 8.2851 -11.0032 14.2292 7.6796 -20.0345 -5.0063 28.2734 -297.9562 64.1240 238.4099 91.2352 -19.7846 -21.9540 104.0522 6.6612 53.4345 13.6918 -2.6831 -20.9645 69.3890 41.7268 -14.5412 -28.6912 -15.8171 54.3537 -90.7388 -23.5505 28.0751 -1.5929 8.9722 -2.2871 -16.1151 64.2244 9.6223 -4.4270 -11.2233 21.7504 -6.1897 -38.9912 5.7290 3.0177 20.5142 -9.7285 5.4691 -15.8049 -15.5169 
3.5940 80.5052 -92.7990 1.7979 7.9564 175.6904 3.4150 10.5905 3.7073 -2.5867 9.7762 4.2459 3.4153 -15.8489 -0.2607 -0.2060 12.8569 -0.7251 -13.9082 -4.2030 34.0636 -450.9173 69.7228 408.2773 30.4002 -12.8921 -44.1576 101.6038 -6.1174 19.9286 19.8332 -1.9231 -11.1089 16.8752 53.8822 56.9580 -53.8470 -25.7758 49.6166 -92.9951 -18.2663 3.6548 5.4829 -39.1887 -3.1220 -23.0572 58.5714 17.0086 1.0216 -16.9696 26.0776 1.3997 -14.3849 2.1875 -5.1976 62.5555 16.6719 -4.5539 -31.4718 -24.8715 
-0.3410 74.2617 -140.3331 1.2941 12.3880 171.0914 -4.5794 16.2493 2.2895 -3.1754 14.7693 2.0443 1.3609 -13.3432 1.5951 5.4082 4.4460 1.2434 -20.2421 -3.8722 20.4404 -398.4480 60.2632 339.4205 48.2239 -16.0098 -32.9022 94.2981 -7.0815 22.1202 23.4576 -1.4715 -5.9603 56.3774 40.2194 10.5633 -29.3620 -9.7707 35.3147 -94.3127 -14.5394 18.2017 10.9917 -34.2293 3.7770 -14.7029 45.8910 4.2962 -5.0618 1.4638 19.2494 1.1929 -18.7551 5.7316 -191.1388 78.9882 195.6371 -4.2250 -25.8572 -20.6777 
0.4498 85.8627 -161.8636 -0.6013 7.4437 171.5181 0.9553 10.6205 -0.5629 -1.1221 10.4233 -0.3629 3.0732 -16.2016 1.5644 -0.6424 1.9255 1.1292 -21.9209 -3.8159 19.7650 -365.8778 64.9180 309.2092 52.0615 -16.7033 -33.9695 93.0864 -4.6673 26.2549 19.9601 -1.3894 -8.1821 69.7033 36.9571 -5.7464 -19.2639 -5.1454 30.0973 -88.1691 -13.2859 21.6237 4.9802 -17.8632 -0.1756 -10.5682 34.6393 3.4154 -5.4186 -0.4958 20.1629 -1.6348 -22.3388 3.2396 -1.7933 38.3456 7.6014 6.0710 -13.8722 -15.8645 
4.6272 88.1451 -171.9506 -1.1482 4.7013 173.2058 2.0993 6.8009 -0.4833 -0.8974 9.6810 -0.2754 7.4146 -27.0910 3.7411 -3.0969 1.9590 2.0121 -21.9833 -2.7339 13.6523 -418.0631 38.4620 357.2277 28.0807 -10.4226 -41.4516 83.8201 -7.6025 -10.4172 20.5750 -1.6589 -9.2174 50.7498 45.1581 17.8927 -32.4431 -10.8122 35.8128 -93.5365 -11.5658 9.1915 5.3705 -8.6296 -0.4834 -7.2448 25.9941 1.8209 -9.7935 -7.8439 20.3300 -0.4906 -13.0833 1.7191 -1.9772 29.3590 9.9687 1.2717 -14.4470 -19.6707 
4.9653 87.6509 -176.2582 2.3381 3.3455 175.2310 1.9249 3.1493 -1.2668 -1.8484 10.2724 -1.0479 4.3124 -22.8917 2.4724 -0.8062 -0.6424 1.5885 -21.5922 -1.1140 6.3723 -420.2160 8.9573 365.4836 9.0502 -3.2493 -37.7559 84.5649 1.7344 -36.0449 21.3052 -1.7384 -9.0149 44.9355 47.2893 20.3431 -28.2146 -11.0722 43.1699 -91.7046 -11.7324 11.5887 6.3295 -2.9058 -0.1648 -2.2625 18.1417 -2.0814 -6.0329 -8.3534 21.6987 2.2038 -8.1738 -0.8109 -1.2926 24.3672 10.3611 1.4701 -16.1690 -20.1940 
3.7901 87.4632 -177.9704 2.0030 4.0668 179.5551 -3.0441 2.6004 -0.4424 1.7931 10.7469 -0.6778 3.3552 -24.3243 1.2039 -1.8757 0.3984 0.4839 -22.1030 -2.3479 12.0404 -414.2386 43.3825 352.1012 26.8418 -9.7383 -38.5247 84.2849 -5.1918 -7.7869 21.9789 -1.5966 -8.2079 57.3615 38.5752 5.9565 -18.8312 -5.1825 30.3982 -80.6450 -9.8168 29.9394 4.6818 -0.0563 -4.4526 -1.2820 14.5144 -3.2537 -4.5804 -7.2779 22.5591 1.1784 -6.4219 -1.6162 -1.1455 25.4462 8.0792 2.3969 -18.4584 -20.9194 
2.0960 87.5624 -178.0877 1.9181 2.7655 176.8669 -2.3463 2.6274 -0.5795 2.4951 10.9769 -0.8710 3.9181 -24.5752 2.8253 -2.7474 -0.1395 1.9594 -22.5777 -2.2213 10.7375 -414.2978 39.2339 353.5447 23.7745 -7.8343 -37.4759 85.3658 -3.3470 -10.5982 21.4341 -1.5671 -8.3206 60.8009 39.6444 4.7281 -22.4560 -6.3103 30.9403 -81.6586 -10.0338 23.9034 3.3806 -0.0265 -3.9972 -1.6858 13.1092 -1.4666 -3.9591 -7.7734 23.3395 0.1304 -7.7769 -0.7441 -1.5492 24.9390 9.3498 2.9971 -17.7695 -19.8894 
